<svg width="374" height="136" viewBox="0 0 374 136" fill="none" xmlns="http://www.w3.org/2000/svg">
<path d="M19.6719 39.1484C19.6719 38.8047 19.7734 38.5547 19.9766 38.3984C20.1953 38.2422 20.4922 38.0781 20.8672 37.9062L32.6797 32.4219C32.7734 32.3906 32.8516 32.3672 32.9141 32.3516C32.9922 32.3203 33.0703 32.3047 33.1484 32.3047C33.3828 32.3047 33.5703 32.3906 33.7109 32.5625C33.8672 32.7344 33.9453 32.9297 33.9453 33.1484C33.9453 33.5078 33.7812 33.7578 33.4531 33.8984L22.0391 39.1484L33.4531 44.375C33.625 44.4531 33.75 44.5625 33.8281 44.7031C33.9062 44.8438 33.9453 44.9922 33.9453 45.1484C33.9453 45.3516 33.8672 45.5391 33.7109 45.7109C33.5703 45.8828 33.3828 45.9688 33.1484 45.9688C33.0703 45.9688 32.9141 45.9297 32.6797 45.8516L20.8672 40.3672C20.4922 40.1953 20.1953 40.0312 19.9766 39.875C19.7734 39.7188 19.6719 39.4766 19.6719 39.1484ZM75.5 46.9062C75.3281 47.2656 75.1797 47.5781 75.0547 47.8438C74.9297 48.1094 74.7266 48.2422 74.4453 48.2422C74.2266 48.2422 74.0547 48.2031 73.9297 48.125C73.8203 48.0625 73.7344 47.9766 73.6719 47.8672C73.625 47.7734 73.5938 47.6641 73.5781 47.5391C73.5781 47.4297 73.5781 47.3359 73.5781 47.2578C73.5781 47.1016 73.6016 46.9688 73.6484 46.8594C73.7109 46.7344 73.7812 46.5859 73.8594 46.4141L83.4688 20.7969C83.5781 20.4375 83.7031 20.125 83.8438 19.8594C84 19.5781 84.2578 19.4375 84.6172 19.4375C84.9453 19.4375 85.1562 19.5234 85.25 19.6953C85.3438 19.8672 85.3906 20.0547 85.3906 20.2578C85.3906 20.4297 85.3594 20.6016 85.2969 20.7734C85.25 20.9297 85.2031 21.0938 85.1562 21.2656L75.5 46.9062ZM182.305 39.1484C182.305 39.4766 182.195 39.7188 181.977 39.875C181.773 40.0312 181.484 40.1953 181.109 40.3672L169.297 45.8516C169.062 45.9297 168.906 45.9688 168.828 45.9688C168.594 45.9688 168.398 45.8828 168.242 45.7109C168.102 45.5391 168.031 45.3516 168.031 45.1484C168.031 44.9922 168.07 44.8438 168.148 44.7031C168.227 44.5625 168.352 44.4531 168.523 44.375L179.938 39.1484L168.523 33.8984C168.195 33.7578 168.031 33.5078 168.031 33.1484C168.031 32.9297 168.102 32.7344 168.242 32.5625C168.398 32.3906 168.594 32.3047 168.828 32.3047C168.906 32.3047 168.977 32.3203 169.039 32.3516C169.117 32.3672 169.203 32.3906 169.297 32.4219L181.109 37.9062C181.484 38.0781 181.773 38.2422 181.977 38.3984C182.195 38.5547 182.305 38.8047 182.305 39.1484Z" fill="#22A43E"/>
<path d="M69.7812 39.7109C69.7812 40.7109 69.6016 41.6016 69.2422 42.3828C68.8828 43.1484 68.3828 43.8203 67.7422 44.3984C67.1016 44.9609 66.3359 45.4453 65.4453 45.8516C64.5703 46.2422 63.6172 46.5625 62.5859 46.8125C61.5547 47.0469 60.4531 47.2109 59.2812 47.3047C58.125 47.4141 56.9531 47.4688 55.7656 47.4688C54.0938 47.4688 52.4297 47.3828 50.7734 47.2109C49.1172 47.0391 47.5703 46.8281 46.1328 46.5781C44.6953 46.3125 43.4219 46.0312 42.3125 45.7344C41.2188 45.4375 40.3906 45.1562 39.8281 44.8906C39.6094 44.7812 39.4453 44.6484 39.3359 44.4922C39.2422 44.3203 39.1953 44.1484 39.1953 43.9766C39.1953 43.7891 39.2422 43.6328 39.3359 43.5078C39.4453 43.3672 39.6016 43.2969 39.8047 43.2969C39.8984 43.2969 40.0078 43.3203 40.1328 43.3672C40.7422 43.6172 41.6172 43.8906 42.7578 44.1875C43.8984 44.4844 45.1875 44.7656 46.625 45.0312C48.0781 45.2812 49.6172 45.4922 51.2422 45.6641C52.8828 45.8359 54.5078 45.9219 56.1172 45.9219C57.6797 45.9219 59.1641 45.8203 60.5703 45.6172C61.9766 45.4141 63.2109 45.0703 64.2734 44.5859C65.3516 44.1016 66.2031 43.4609 66.8281 42.6641C67.4688 41.8672 67.7891 40.8828 67.7891 39.7109C67.7891 38.7266 67.5156 37.9219 66.9688 37.2969C66.4375 36.6562 65.7109 36.1484 64.7891 35.7734C63.8672 35.3828 62.7891 35.0938 61.5547 34.9062C60.3203 34.7031 59.0078 34.5547 57.6172 34.4609C56.2422 34.3516 54.8203 34.2734 53.3516 34.2266C51.8828 34.1641 50.4531 34.0703 49.0625 33.9453C47.6875 33.8203 46.3828 33.6406 45.1484 33.4062C43.9141 33.1719 42.8359 32.8281 41.9141 32.375C40.9922 31.9219 40.2578 31.3359 39.7109 30.6172C39.1797 29.8984 38.9141 28.9922 38.9141 27.8984C38.9141 26.8984 39.1016 26.0156 39.4766 25.25C39.8516 24.4844 40.3672 23.8281 41.0234 23.2812C41.6797 22.7188 42.4531 22.2578 43.3438 21.8984C44.25 21.5234 45.2266 21.2266 46.2734 21.0078C47.3359 20.7891 48.4453 20.6328 49.6016 20.5391C50.7734 20.4453 51.9453 20.3984 53.1172 20.3984C54.5703 20.3984 56 20.4688 57.4062 20.6094C58.8125 20.7344 60.1328 20.9141 61.3672 21.1484C62.6016 21.3672 63.7109 21.6172 64.6953 21.8984C65.6797 22.1641 66.4688 22.4375 67.0625 22.7188C67.1875 22.7812 67.2812 22.875 67.3438 23C67.4062 23.1094 67.4375 23.2266 67.4375 23.3516C67.4375 23.5703 67.3594 23.7734 67.2031 23.9609C67.0625 24.1484 66.8594 24.2422 66.5938 24.2422C66.4375 24.2422 66.3047 24.2109 66.1953 24.1484C65.3672 23.8047 64.4453 23.5 63.4297 23.2344C62.4297 22.9531 61.3672 22.7188 60.2422 22.5312C59.1172 22.3438 57.9531 22.2031 56.75 22.1094C55.5625 22 54.3828 21.9453 53.2109 21.9453C51.5859 21.9453 50.0312 22.0391 48.5469 22.2266C47.0625 22.4141 45.75 22.7344 44.6094 23.1875C43.4844 23.625 42.5859 24.2188 41.9141 24.9688C41.2422 25.7031 40.9062 26.6328 40.9062 27.7578C40.9062 28.6172 41.1719 29.3203 41.7031 29.8672C42.25 30.3984 42.9844 30.8281 43.9062 31.1562C44.8281 31.4844 45.9062 31.7344 47.1406 31.9062C48.375 32.0625 49.6797 32.1875 51.0547 32.2812C52.4453 32.375 53.875 32.4609 55.3438 32.5391C56.8125 32.6016 58.2344 32.7188 59.6094 32.8906C61 33.0469 62.3125 33.2734 63.5469 33.5703C64.7812 33.8516 65.8594 34.25 66.7812 34.7656C67.7031 35.2812 68.4297 35.9453 68.9609 36.7578C69.5078 37.5547 69.7812 38.5391 69.7812 39.7109ZM91.25 47C91.0156 47 90.8281 46.9922 90.6875 46.9766C90.5625 46.9609 90.4688 46.9297 90.4062 46.8828C90.3438 46.8203 90.3047 46.7344 90.2891 46.625C90.2891 46.5 90.2891 46.3359 90.2891 46.1328V22.4141C90.2891 22.0078 90.3594 21.6562 90.5 21.3594C90.6406 21.0469 90.9375 20.8906 91.3906 20.8906C91.7656 20.8906 92.0078 21.0547 92.1172 21.3828C92.2266 21.6953 92.2812 22.0391 92.2812 22.4141V45.4531H112.414C112.727 45.4531 112.961 45.5391 113.117 45.7109C113.289 45.8672 113.375 46.0391 113.375 46.2266C113.375 46.4297 113.289 46.6094 113.117 46.7656C112.961 46.9219 112.727 47 112.414 47H91.25ZM122.258 44.8906L135.641 22.0625C135.812 21.7656 135.992 21.5078 136.18 21.2891C136.367 21.0703 136.57 20.9453 136.789 20.9141C137.086 20.9141 137.297 21.0078 137.422 21.1953C137.547 21.3828 137.609 21.5625 137.609 21.7344C137.609 21.9062 137.555 22.0938 137.445 22.2969C137.352 22.4844 137.242 22.6797 137.117 22.8828L123.453 46.1797C123.281 46.4609 123.086 46.6719 122.867 46.8125C122.664 46.9375 122.453 47 122.234 47C121.766 47 121.367 46.7266 121.039 46.1797L107.328 22.8828C107.203 22.6641 107.094 22.4609 107 22.2734C106.922 22.0703 106.883 21.875 106.883 21.6875C106.883 21.5625 106.945 21.4062 107.07 21.2188C107.195 21.0156 107.391 20.9141 107.656 20.9141C107.922 20.9453 108.141 21.0703 108.312 21.2891C108.5 21.5078 108.68 21.7656 108.852 22.0625L122.258 44.8906ZM148.648 22.0859C148.898 21.6328 149.094 21.3203 149.234 21.1484C149.375 20.9766 149.586 20.8906 149.867 20.8906C150.086 20.8906 150.273 20.9766 150.43 21.1484C150.602 21.3047 150.82 21.6172 151.086 22.0859L164.023 45.4297C164.195 45.7422 164.281 46.0469 164.281 46.3438C164.281 46.625 164.203 46.8438 164.047 47C163.891 47.1562 163.703 47.2344 163.484 47.2344C163.266 47.2344 163.047 47.1562 162.828 47C162.625 46.8594 162.414 46.5938 162.195 46.2031L158.211 38.9844H141.523L137.492 46.2969C137.32 46.625 137.117 46.8594 136.883 47C136.664 47.1562 136.445 47.2344 136.227 47.2344C135.961 47.2344 135.766 47.1406 135.641 46.9531C135.516 46.7656 135.453 46.5156 135.453 46.2031C135.453 46.0781 135.477 45.9531 135.523 45.8281C135.586 45.7031 135.656 45.5625 135.734 45.4062L148.648 22.0859ZM157.531 37.6016L149.867 23.6094L142.203 37.6016H157.531Z" fill="black"/>
</svg>
